<svg width="747" height="301" viewBox="0 0 747 301" fill="none" xmlns="http://www.w3.org/2000/svg">
<rect y="69.1553" width="617" height="197" fill="#FFE0B0"/>
<path d="M571.924 109.501C571.924 109.501 503.998 235.595 649.547 244.221L656.555 250.15V208.642L607.655 193.548L606.218 93.2808" fill="#E2E2E2"/>
<path d="M607.357 172.755C595.717 177.585 586.953 198.697 586.953 224.012C586.953 225.283 586.975 226.544 587.02 227.792C598.874 235.043 614.865 240.464 636.176 243.032C637.348 236.76 637.93 230.392 637.914 224.012C637.941 216.669 637.161 209.344 635.591 202.171L607.656 193.548L607.357 172.755Z" fill="black"/>
<path d="M580.991 108.619L623.072 105.736L630.724 108.852L634.32 292.63H595.234L599.367 285.224L580.991 108.619Z" fill="#EDEEEF"/>
<path d="M585.745 20.2373V26.8797C585.745 32.0159 589.251 36.4885 594.239 37.7144L604.809 40.3124V14.3419L596.02 12.1817C593.545 11.5734 590.928 12.1366 588.922 13.709C586.916 15.2815 585.745 17.6887 585.745 20.2373V20.2373Z" fill="#EDEEEF"/>
<path d="M585.745 26.8799C585.745 32.016 589.251 36.4886 594.239 37.7145L604.809 40.3125" stroke="black" stroke-width="1.5" stroke-linecap="round" stroke-linejoin="round"/>
<path d="M596.514 25.562C596.795 25.562 597.024 25.3337 597.024 25.0522C597.024 24.7707 596.795 24.5425 596.514 24.5425C596.232 24.5425 596.004 24.7707 596.004 25.0522C596.004 25.3337 596.232 25.562 596.514 25.562Z" fill="black"/>
<path d="M588.685 25.562C588.966 25.562 589.195 25.3337 589.195 25.0522C589.195 24.7707 588.966 24.5425 588.685 24.5425C588.403 24.5425 588.175 24.7707 588.175 25.0522C588.175 25.3337 588.403 25.562 588.685 25.562Z" fill="black"/>
<path d="M590.982 28.0927V20.2373H587.046" stroke="black" stroke-width="1.5" stroke-linecap="round" stroke-linejoin="round"/>
<path d="M597.474 20.2373H593.539" stroke="black" stroke-width="1.5" stroke-linecap="round" stroke-linejoin="round"/>
<path d="M603.553 24.2627V26.9906C605.025 26.9906 606.218 25.7977 606.218 24.3262C606.218 24.2444 606.214 24.1636 606.207 24.0837C606.058 22.4291 603.553 22.6014 603.553 24.2627Z" fill="#EDEEEF"/>
<path d="M603.553 26.9906C605.025 26.9906 606.218 25.7977 606.218 24.3262" stroke="black" stroke-width="1.5" stroke-linecap="round" stroke-linejoin="round"/>
<path d="M593.133 29.0107C593.464 29.3416 593.913 29.5275 594.381 29.5275C594.849 29.5275 595.298 29.3416 595.629 29.0107" stroke="#DC911B" stroke-width="1.5" stroke-linecap="round" stroke-linejoin="round"/>
<path d="M590.982 28.0991L592.703 28.5222" stroke="black" stroke-width="1.5" stroke-linecap="round" stroke-linejoin="round"/>
<path d="M571.924 67.8705V109.501L630.898 123.996V77.631C630.898 61.1909 619.675 46.8748 603.71 42.9509H603.71C596.053 41.0691 587.957 42.8112 581.752 47.6755C575.548 52.5399 571.924 59.9864 571.924 67.8705V67.8705Z" fill="#DC911B"/>
<path d="M599.367 285.224L580.991 108.619" stroke="black" stroke-width="1.5" stroke-linecap="round" stroke-linejoin="round"/>
<path d="M591.842 36.8223C591.842 36.8223 591.842 45.3661 577.345 44.5967L574.026 41.278C574.026 41.278 575.86 3.44815 601.597 8.36407C605.665 9.14118 609.292 11.5505 611.265 15.1926C613.465 19.2561 613.819 25.1552 604.886 31.5537" stroke="black" stroke-width="1.5" stroke-linecap="round" stroke-linejoin="round"/>
<path d="M572.779 42.5737C572.914 42.5737 576.104 45.8982 576.104 45.8982" stroke="#DC911B" stroke-width="1.5" stroke-linecap="round" stroke-linejoin="round"/>
<path d="M585.745 23.7368C585.745 23.7368 594.434 21.5804 597.024 16.2793C597.024 16.2793 599.857 23.62 603.553 24.2624" stroke="black" stroke-width="1.5" stroke-linecap="round" stroke-linejoin="round"/>
<path d="M572.149 44.2363C572.149 44.2363 562.984 49.404 564.542 61.983C565.034 66.154 567.128 69.9702 570.383 72.6248C572.054 74.0293 574.364 74.3959 576.387 73.5777C578.411 72.7595 579.817 70.8904 580.042 68.7194C580.312 66.2715 580.831 63.7582 581.793 61.8632C585.745 54.0762 573.841 45.8985 573.841 45.8985" stroke="black" stroke-width="1.5" stroke-linecap="round" stroke-linejoin="round"/>
<path d="M618.68 50.7344C618.68 50.7344 677.513 116.731 620.368 150.515L611.024 134.855L624.322 110.621L611.024 88.3386" stroke="black" stroke-width="1.5" stroke-linecap="round" stroke-linejoin="round"/>
<path d="M620.368 150.514L605.786 126.075" stroke="black" stroke-width="1.5" stroke-linecap="round" stroke-linejoin="round"/>
<path d="M550.049 51.3157C549.52 48.951 549.756 46.4793 550.723 44.2572C553.485 37.7724 561.04 21.7118 568.308 21.2086C577.423 20.5776 574.547 28.6041 571.313 30.5209C569.508 31.6571 567.2 31.61 565.443 30.4011C565.443 30.4011 556.713 41.0084 557.656 44.2979C557.656 44.2979 562.687 44.2979 561.01 49.0898C559.543 53.2828 551.93 59.402 550.049 51.3157Z" fill="#DC911B"/>
<path d="M557.294 38.2262C557.294 38.2262 564.122 32.4524 557.294 30.4758C550.465 28.4991 535.191 49.7036 537.707 73.0645C540.222 96.4254 556.903 111.88 571.924 99.1209" stroke="black" stroke-width="1.5" stroke-linecap="round" stroke-linejoin="round"/>
<path d="M557.541 53.6494C557.541 53.6494 558.651 64.0791 562.105 70.3686L565.994 67.0321" stroke="black" stroke-width="1.5" stroke-linecap="round" stroke-linejoin="round"/>
</svg>
