<svg width="300" height="301" viewBox="0 0 300 301" fill="none" xmlns="http://www.w3.org/2000/svg">
<path d="M198.46 57.0541C198.986 54.7042 198.752 52.2479 197.791 50.0398C195.046 43.5956 187.538 27.6357 180.316 27.1356C171.258 26.5085 174.116 34.4848 177.33 36.3896C179.124 37.5186 181.417 37.4718 183.163 36.2705C183.163 36.2705 191.839 46.8114 190.902 50.0802C190.902 50.0802 185.902 50.0802 187.568 54.8422C189.027 59.0089 196.592 65.0897 198.46 57.0541Z" fill="#DC911B"/>
<path d="M181.32 124.857C181.32 124.857 204.632 205.304 173.029 232.088C141.426 258.873 107.677 271.194 107.677 271.194L104.463 283.515L88.3923 244.409L133.39 192.983L152.673 114.236" fill="#E2E2E2"/>
<path d="M149.856 167.27C145.827 167.27 141.975 169.084 138.434 172.385L133.39 192.983L122.467 205.467C119.873 216.408 118.391 229.055 118.391 242.531C118.38 250.353 118.899 258.168 119.943 265.92C132.601 259.966 153.235 248.864 173.029 232.088C175.879 229.647 178.336 226.783 180.316 223.596C176.805 191.196 164.499 167.27 149.856 167.27Z" fill="black"/>
<path d="M171.79 112.795C171.79 112.795 179 230.47 158.637 286.185L162.89 292.434H126.672C126.672 292.434 122.715 142.758 122.715 110.453L171.79 112.795Z" fill="#EDEEEF"/>
<path d="M163.375 21.749V37.0417L144.43 41.6981V15.8904L163.375 11.2339V21.749Z" fill="#EDEEEF"/>
<path d="M152.673 27.0395C152.953 27.0395 153.179 26.8127 153.179 26.5329C153.179 26.2532 152.953 26.0264 152.673 26.0264C152.393 26.0264 152.166 26.2532 152.166 26.5329C152.166 26.8127 152.393 27.0395 152.673 27.0395Z" fill="black"/>
<path d="M160.453 27.0395C160.733 27.0395 160.96 26.8127 160.96 26.5329C160.96 26.2532 160.733 26.0264 160.453 26.0264C160.173 26.0264 159.946 26.2532 159.946 26.5329C159.946 26.8127 160.173 27.0395 160.453 27.0395Z" fill="black"/>
<path d="M158.171 29.5547V21.7485H162.081" stroke="black" stroke-width="1.5" stroke-linecap="round" stroke-linejoin="round"/>
<path d="M151.719 21.7484H155.629" stroke="black" stroke-width="1.5" stroke-linecap="round" stroke-linejoin="round"/>
<path d="M145.678 25.7484V28.4593C144.215 28.4593 143.03 27.2739 143.03 25.8116C143.03 25.7303 143.033 25.65 143.041 25.5706C143.189 23.9264 145.678 24.0976 145.678 25.7484Z" fill="#EDEEEF"/>
<path d="M145.678 28.4592C144.215 28.4592 143.03 27.2738 143.03 25.8115" stroke="black" stroke-width="1.5" stroke-linecap="round" stroke-linejoin="round"/>
<path d="M156.46 31.4791C154.98 31.4791 153.78 30.2793 153.78 28.7993" stroke="#DC911B" stroke-width="1.5" stroke-linecap="round" stroke-linejoin="round"/>
<path d="M163.375 37.0415L144.43 41.6978" stroke="black" stroke-width="1.5" stroke-linecap="round" stroke-linejoin="round"/>
<path d="M158.171 29.561L156.46 29.9814" stroke="black" stroke-width="1.5" stroke-linecap="round" stroke-linejoin="round"/>
<path d="M122.715 69.0832V110.453L181.32 124.857V78.7826C181.32 62.4455 170.167 48.2191 154.302 44.3198H154.302C146.694 42.4498 138.648 44.181 132.483 49.0148C126.317 53.8487 122.715 61.2485 122.715 69.0832V69.0832Z" fill="#DC911B"/>
<path d="M171.79 112.795C171.79 112.795 179 230.47 158.637 286.185" stroke="black" stroke-width="1.5" stroke-linecap="round" stroke-linejoin="round"/>
<path d="M146.787 23.6807C146.787 23.6807 150 23.5022 158.171 17.52V19.8414C158.171 19.8414 162.859 18.5021 164.198 16.1807" stroke="black" stroke-width="1.5" stroke-linecap="round" stroke-linejoin="round"/>
<path d="M164.626 15.2719C164.626 15.2719 174.734 1.89499 146.787 11.2339L149.823 7.92188C149.823 7.92188 134.912 12.749 143.662 24.4204" stroke="black" stroke-width="1.5" stroke-linecap="round" stroke-linejoin="round"/>
<path d="M163.097 25.2583C163.097 25.2583 166.796 20.2904 165.311 14.2104" stroke="black" stroke-width="1.5" stroke-linecap="round" stroke-linejoin="round"/>
<path d="M128.211 53.2617C128.211 53.2617 91.734 82.6993 97.4483 120.2C103.163 157.7 140.91 160.2 140.91 160.2L146.788 149.843L122.715 110.453L145.678 86.985" stroke="black" stroke-width="1.5" stroke-linecap="round" stroke-linejoin="round"/>
<path d="M140.91 160.2L152.969 138.95" stroke="black" stroke-width="1.5" stroke-linecap="round" stroke-linejoin="round"/>
<path d="M170.492 53.2617C170.492 53.2617 182.687 66.0324 188.64 80.3183" stroke="black" stroke-width="1.5" stroke-linecap="round" stroke-linejoin="round"/>
<path d="M180.316 109.605C180.316 109.605 184.83 119.129 197.211 122.224C209.506 125.297 222.505 70.3784 194.941 35.1059C194.351 34.3358 193.524 33.7808 192.588 33.5266C190.887 33.0856 188.695 33.711 189.601 40.5563C189.601 40.5563 185.782 39.2043 187.687 43.5708C189.592 47.9373 193.131 64.8765 186.48 75.6928" stroke="black" stroke-width="1.5" stroke-linecap="round" stroke-linejoin="round"/>
</svg>
